<!--made this version of the CTT logo based off of one a I saw on the thumbnail of a NotroDan vid (https://youtu.be/OBPreMucWf0)-->
<svg width="1024" height="1024" viewBox="0 0 1024 1024" xmlns="http://www.w3.org/2000/svg">
	<defs>
		<radialGradient id="bgShading" r="690" cx="512" cy="225" gradientUnits="userSpaceOnUse">
			<stop id="highlight" style="stop-color:#ffffff" offset="0"/>
			<stop id="midtone" style="stop-color:#e3e3e3" offset="0.75"/>
			<stop id="shadow" style="stop-color:#999999" offset="1"/>
		</radialGradient>
		<filter id="bgGlow" x="-0.5" y="-0.5" width="2" height="2">
			<feGaussianBlur stdDeviation="35"/>
			<feColorMatrix values="0 0 0 0 0, 0 0 0 0 0.069, 0 0 0 0 1, 0 0 0 1 0"/>
			<feComposite in="SourceGraphic" operator="over"/>
		</filter>
		<filter id="depth" x="-0.5" y="-0.5" width="2" height="2">
			<feOffset dx="0" dy="20"/>
			<feColorMatrix values="0.1 0 0 0 0, 0 0.1 0 0 0, 0 -0.1 0.3 0 0, 0 0 0 1 0"/>
			<feComposite in="SourceGraphic" operator="over"/>
		</filter>
		<filter id="shadingBlur" x="-0.5" y="-0.5" width="2" height="2">
			<feGaussianBlur stdDeviation="14"/>
		</filter>
	</defs>
	<circle id="BG" r="40%" cy="50%" cx="50%" style="fill:url(#bgShading);stroke:#ffffff;stroke-width:15;filter:url(#bgGlow)"/>
	<path id="C" style="fill:#a3a6a8;stroke:#cad6da;stroke-width:15;filter:url(#depth)" d="m 268,461 56,29 v 93 c 0,42 22,81 59,102 l 131,76 134,-78 c 34,-20 55,-57 55,-96 v -97 l 57,-29 v 106 c 0,76 -42,145 -109,180 L 513,820 369,744 C 307,711 268,646 268,575 Z"/>
	<path id="TT" style="fill:#0567ff;stroke:#19a0ff;stroke-width:15;filter:url(#depth)" d="m 259,281 v 53 c 0,30 17,58 43,73 l 97,53 v 135 c 0,14 8,28 20,35 l 64,36 V 405 c 0,-3 -2,-6 -5,-8 z m 509,0 -220,117 c -3,2 -5,4 -5,8 v 260 l 64,-36 c 13,-7 20,-20 20,-35 V 459 l 97,-53 c 27,-15 43,-42 43,-73 z"/>
	<path id="CTT-shading" style="mix-blend-mode:soft-light;filter:url(#shadingBlur)" d="m 453,419 c 0,0 11,202 -12,190 C 417,597 425,442 425,442 425,442 339,394 323,380 306,366 295,339 295,339 Z m 283,-84 -164,89 c 0,0 -6,200 13,190 19,-10 16,-170 16,-170 0,0 74,-42 102,-60 28,-18 33,-49 33,-49 z M 738,496 l -14,9 c 0,0 16,91 -23,152 C 662,719 512,783 512,783 512,783 367,719 327,663 287,607 301,504 301,504 l -13,-6 c 0,0 -13,114 26,170 41,59 198,130 198,130 0,0 161,-71 201,-134 35,-55 25,-168 25,-168 z"/>
</svg>
