<!--Disclaimer: Doesn't seem to be compatible with anything other than browser. I'm not too sure why-->
<svg xmlns="http://www.w3.org/2000/svg" width="1024" height="1024" viewBox="0 0 1024 1024" xml:space="preserve">
  <defs>
    <filter id="bg-glow">
      <feDropShadow dx="0" dy="0" stdDeviation="37" flood-color="#0059FF"/> 
    </filter>
    <radialGradient id="bg-shading" cx="50%" cy="10%" r="95%">
      <stop offset="0%" style="stop-color:#fff"/>
      <stop offset="70%" style="stop-color:#e3e3e3"/>
      <stop offset="100%" style="stop-color:#999"/>
    </radialGradient>
    <filter id="depth-c">
      <feDropShadow dx="0" dy="20" stdDeviation="0" flood-color="#575967"/>
    </filter>
    <filter id="depth-tt">
      <feDropShadow dx="0" dy="20" stdDeviation="0" flood-color="#0049ba"/>
    </filter>
    <filter id="blur-shading">
      <feGaussianBlur in="SourceGraphic" stdDeviation="15" />
    </filter>
  </defs>
  <circle id="bg" style="r:40%;cx:50%;cy:50%;fill:url(#bg-shading);stroke:#fff;stroke-width:15;filter:url(#bg-glow)"/>
  <path id="c" style="fill:#a3a6a8;stroke:#cad6da;stroke-width:15;filter:url(#depth-c)" d="m 268,461 56,29 v 93 c 0,42 22,81 59,102 l 131,76 134,-78 c 34,-20 55,-57 55,-96 v -97 l 57,-29 v 106 c 0,76 -42,145 -109,180 L 513,820 369,744 C 307,711 268,646 268,575 Z"/>
  <path id="tt" style="fill:#0567ff;stroke:#19a0ff;stroke-width:15;filter:url(#depth-tt)" d="m 259,281 v 53 c 0,30 17,58 43,73 l 97,53 v 135 c 0,14 8,28 20,35 l 64,36 V 405 c 0,-3 -2,-6 -5,-8 z m 509,0 -220,117 c -3,2 -5,4 -5,8 v 260 l 64,-36 c 13,-7 20,-20 20,-35 V 459 l 97,-53 c 27,-15 43,-42 43,-73 z"/>
  <path id="ctt-shading" style="mix-blend-mode:color-burn;filter:url(#blur-shading)" d="m 308,343 145,76 c 0,0 11,202 -12,190 -24,-12 -10,-169 -10,-169 0,0 -92,-46 -108,-60 -17,-14 -14,-38 -14,-38 z m 418,-2 -151,82 c 0,0 -9,194 9,185 18,-9 10,-168 10,-168 0,0 95,-46 116,-67 21,-21 16,-33 16,-33 z m 7,158 -7,4 c 0,0 15,93 -24,155 -38,61 -190,126 -190,126 0,0 -136,-59 -181,-114 -45,-56 -31,-166 -31,-166 l -9,-3 c 0,0 -9,115 33,173 42,59 188,119 188,119 0,0 158,-68 198,-131 40,-63 23,-162 23,-162 z"/>
</svg>
